<svg xmlns="http://www.w3.org/2000/svg" aria-hidden="true" style="position:absolute;width:0;height:0;overflow:hidden"><defs><symbol id="icon-checkmark" viewBox="0 0 40 32"><path d="M33.782 1.02a3.668 3.668 0 0 1 5.115.039 3.712 3.712 0 0 1 .135 5.141L19.454 30.817a3.674 3.674 0 0 1-4.074.914 3.675 3.675 0 0 1-1.226-.815L1.17 17.862A3.693 3.693 0 0 1-.001 15.22a3.714 3.714 0 0 1 1.077-2.682 3.664 3.664 0 0 1 4.1-.763 3.68 3.68 0 0 1 1.195.857l10.275 10.325 17.042-21.83c.031-.038.063-.074.098-.109h-.005z"/></symbol><symbol id="icon-icon_send" viewBox="0 0 38 32"><path d="M38.4 0 0 18l12.272 3.788L31.2 7 16.803 23.186l.012.004-.014-.004V32l6.882-6.691L32.401 28l6-28z"/></symbol><symbol id="icon-mail" viewBox="0 0 43 32"><path d="M37.333 0h-32c-2.2 0-3.98 1.8-3.98 4l-.02 24c0 2.2 1.8 4 4 4h32c2.2 0 4-1.8 4-4V4c0-2.2-1.8-4-4-4zm-.8 8.5-14.14 8.84c-.64.4-1.48.4-2.12 0L6.133 8.5c-.5-.32-.8-.86-.8-1.44 0-1.34 1.46-2.14 2.6-1.44l13.4 8.38 13.4-8.38c1.14-.7 2.6.1 2.6 1.44 0 .58-.3 1.12-.8 1.44z"/></symbol><symbol id="icon-man" viewBox="0 0 32 32"><path d="M16 16c4.42 0 8-3.58 8-8s-3.58-8-8-8-8 3.58-8 8 3.58 8 8 8zm0 4c-5.34 0-16 2.68-16 8v2c0 1.1.9 2 2 2h28c1.1 0 2-.9 2-2v-2c0-5.32-10.66-8-16-8z"/></symbol><symbol id="icon-phone" viewBox="0 0 32 32"><path d="m28.865 21.822-4.525-.517a3.543 3.543 0 0 0-2.921 1.015l-3.278 3.278A26.8 26.8 0 0 1 6.402 13.859l3.296-3.296a3.545 3.545 0 0 0 1.015-2.921l-.517-4.489A3.566 3.566 0 0 0 6.651 0H3.569C1.556 0-.118 1.675.006 3.687.95 18.9 13.117 31.049 28.312 31.993c2.013.125 3.687-1.55 3.687-3.563v-3.082c.018-1.799-1.336-3.313-3.135-3.527z"/></symbol><symbol id="icon-antenna" viewBox="0 0 32 32"><path d="m30.303 21.786-8.313-8.374.923-4.544c.238.093.491.142.747.143h.006a2.126 2.126 0 1 0-1.977-1.413l-4.884.596L8.839.186a.528.528 0 0 0-.371-.158.529.529 0 0 0-.368.153L6.611 1.662a.526.526 0 0 0 0 .743l.801.813a14.711 14.711 0 0 0 2.481 17.391c.042.04.091.073.144.096-.033.178-.05.358-.051.539v6.091H3.684a2.63 2.63 0 0 0-2.626 2.626v1.05c0 .29.235.525.525.525h24.156c.29 0 .525-.235.525-.525v-1.05a2.63 2.63 0 0 0-2.626-2.626h-6.302v-2.7a14.77 14.77 0 0 0 3.002.315 14.63 14.63 0 0 0 6.932-1.756l.806.81c.098.1.231.156.371.158a.529.529 0 0 0 .368-.153l1.489-1.481a.524.524 0 0 0 0-.742zm-7.378-15.62a1.05 1.05 0 1 1 .74 1.795h-.003a1.05 1.05 0 0 1-.735-1.795h-.002zm-1.236 3.451-.589 2.9-1.157-1.164 1.747-1.736zm-.597-.888-1.89 1.879-1.462-1.47 3.353-.409zm2.546 19.657c.87 0 1.575.705 1.575 1.575v.525H2.107v-.525c0-.87.705-1.575 1.575-1.575h19.955zm-7.352-2.101v1.05h-5.251v-1.05h5.251zm-5.251-1.05v-3.991c0-1.274 1.178-2.311 2.626-2.311s2.626 1.037 2.626 2.311v3.991h-5.251zm6.301-1.67v-2.321c0-1.853-1.649-3.361-3.676-3.361a3.742 3.742 0 0 0-3.231 1.759A13.658 13.658 0 0 1 8.185 3.999L26.501 22.42a13.604 13.604 0 0 1-9.166 1.145zm11.116-.673L7.719 2.037l.743-.74 7.813 7.857c.004 0 .006.007.009.009l12.913 12.989-.745.74z"/><path d="M13.665 19.984h-.005a1.576 1.576 0 0 0-.005 3.151h.005a1.576 1.576 0 0 0 .005-3.151zm.368 1.947a.524.524 0 1 1-.371-.898.525.525 0 0 1 .367.898h.005z"/></symbol><symbol id="icon-astronaut" viewBox="0 0 32 32"><path d="M31.482 4.512a.525.525 0 0 0-.424-.357l-1.881-.274-.842-1.705c-.176-.359-.765-.359-.942 0l-.842 1.705-1.881.274a.525.525 0 0 0-.291.895l1.362 1.327-.321 1.874a.525.525 0 0 0 .762.554l1.683-.885 1.683.885a.531.531 0 0 0 .554-.04.525.525 0 0 0 .209-.514l-.321-1.874 1.362-1.327a.527.527 0 0 0 .133-.538zm-2.425 1.306a.528.528 0 0 0-.151.465l.188 1.097-.985-.518a.531.531 0 0 0-.49 0l-.985.518.188-1.097a.526.526 0 0 0-.151-.465l-.798-.777 1.102-.16a.524.524 0 0 0 .395-.287l.493-.998.493.998a.523.523 0 0 0 .395.287l1.102.16-.797.777zM25.731 20.264h-1.05v1.05h1.05v-1.05zM25.731 22.364h-1.05v1.05h1.05v-1.05zM26.782 21.314h-1.05v1.05h1.05v-1.05zM24.681 21.314h-1.05v1.05h1.05v-1.05zM22.055 26.04h-1.05v1.05h1.05v-1.05zM22.055 28.141h-1.05v1.05h1.05v-1.05zM23.106 27.091h-1.05v1.05h1.05v-1.05zM21.005 27.091h-1.05v1.05h1.05v-1.05zM15.754 23.94h-1.05v1.05h1.05v-1.05zM15.754 26.04h-1.05v1.05h1.05v-1.05z"/><path d="M16.804 24.99h-1.05v1.05h1.05v-1.05zM14.704 24.99h-1.05v1.05h1.05v-1.05zM5.776 6.085h-1.05v1.05h1.05v-1.05zM5.776 8.186h-1.05v1.05h1.05v-1.05zM6.827 7.135h-1.05v1.05h1.05v-1.05zM4.726 7.135h-1.05v1.05h1.05v-1.05z"/><path d="M24.335 13.999a1.744 1.744 0 0 0-1.17-.694 1.747 1.747 0 0 0-1.319.347l-1.233.945-1.868 1.395-1.337-.532c2.384-1.07 4.05-3.454 4.05-6.223 0-3.764-3.075-6.827-6.854-6.827S7.75 5.473 7.75 9.237c0 1.364.408 2.633 1.103 3.701l-2.721-.024h-.005c-.008 0-.015.004-.023.005a.54.54 0 0 0-.153.03c-.013.005-.026.007-.038.013-.006.003-.013.003-.019.006L2.711 14.54l-.001.001-1.864.896a.438.438 0 0 0-.062.035 1.753 1.753 0 0 0 .451 3.135 1.764 1.764 0 0 0 1.358-.127l1.366-.727 2.229-1.151 1.336-.008-5.358 5.332-.002.001L.846 23.24c-.311.31-.483.721-.483 1.16s.171.85.483 1.161a1.646 1.646 0 0 0 2.323 0l1.294-1.289 1.714-1.28.887.883-1.735 1.727-.002.001-1.318 1.313c-.311.31-.483.721-.483 1.159s.171.85.483 1.161c.32.318.741.478 1.162.478s.842-.16 1.162-.478l3.428-3.413.001-.002.994-.985-.004-.004c.006-.006.015-.008.021-.015l5.086-5.571 3.418.486a.504.504 0 0 0 .258-.033c.017-.006.033-.015.049-.023.019-.009.039-.015.057-.027l3.164-2.101c.012-.008.018-.02.029-.029.013-.01.028-.014.04-.025l1.252-1.173c.651-.61.741-1.61.209-2.325zM2.098 17.554a.703.703 0 0 1-.55.051.703.703 0 0 1-.209-1.24l1.293-.622.442 1.292-.977.519zm3.443-1.8-1.524.788-.432-1.264 1.996-.985-.039 1.461zm14.867-6.518c0 .904-.216 1.757-.59 2.52l-4.117-1.87a1.83 1.83 0 0 0-.776-1.366l1.442-4.786c2.341.745 4.041 2.929 4.041 5.502zm-11.608 0c0-3.185 2.604-5.777 5.804-5.777.249 0 .493.021.734.051l-1.41 4.681c-.019-.001-.037-.006-.056-.006-1.017 0-1.844.824-1.844 1.838s.827 1.838 1.844 1.838a1.84 1.84 0 0 0 1.593-.93l3.803 1.728a5.802 5.802 0 0 1-4.664 2.353c-3.2 0-5.804-2.592-5.804-5.777zm5.865.788c0 .434-.356.788-.793.788s-.793-.353-.793-.788.356-.788.793-.788c.437 0 .793.353.793.788zM2.427 24.817a.6.6 0 0 1-.841.001.583.583 0 0 1 0-.831l.947-.944.838.834-.944.94zm3.164 3.676a.6.6 0 0 1-.842.001.583.583 0 0 1 0-.831l.948-.944.839.834-.945.94zm3.428-3.416-.002.001-1.738 1.733-.839-.834 1.736-1.728.002-.001c.039-.039.064-.087.088-.133.007-.014.02-.025.026-.039.016-.04.019-.084.025-.127.003-.024.014-.047.014-.071 0-.035-.013-.069-.02-.104-.006-.032-.006-.064-.018-.094a.513.513 0 0 0-.09-.135c-.01-.012-.014-.026-.025-.037h-.001l-.001-.002-1.582-1.575c-.017-.017-.038-.024-.057-.038a.436.436 0 0 0-.178-.089.5.5 0 0 0-.101-.019.494.494 0 0 0-.094.005.511.511 0 0 0-.102.02c-.033.011-.062.027-.093.044-.019.011-.042.015-.06.028l-1.746 1.303-.887-.883 2.362-2.349 4.293 4.223-.913.905zm6.714-6.909c-.015-.002-.029.004-.045.003a.537.537 0 0 0-.377.134c-.013.011-.028.016-.039.029l-4.626 5.067-4.261-4.191 2.789-2.775a.527.527 0 0 0-.373-.897v-.001l-2.185.013.027-1.583 3.056.026a6.843 6.843 0 0 0 4.905 2.069c.431 0 .851-.045 1.26-.121.039.031.078.064.128.083l2.373.945.15.747.175.872-2.956-.421zm3.979.176-.308-1.534 1.424-1.063.932 1.237-2.048 1.36zm3.696-2.788-.825.773-.917-1.217.819-.628a.724.724 0 0 1 .535-.141.704.704 0 0 1 .389 1.213z"/><path d="m13.393 18.316-2.11-2.101a.525.525 0 0 0-.741 0l-2.109 2.101a.526.526 0 0 0 0 .744l2.109 2.101a.524.524 0 0 0 .741 0l2.11-2.101a.527.527 0 0 0 0-.744zm-2.48 1.732-1.365-1.36 1.365-1.36 1.366 1.36-1.366 1.36zM16.9 5.05l-.254 1.02c.07.017 1.711.445 1.711 2.116h1.05c0-1.986-1.64-2.92-2.508-3.136zM19.408 9.236h-1.05v1.05h1.05v-1.05z"/></symbol><symbol id="icon-clock" viewBox="0 0 32 32"><path d="M31.203 15.095C31.201 6.773 24.453.027 16.131.029S1.063 6.779 1.065 15.101a15.068 15.068 0 0 0 10.486 14.352.664.664 0 0 0 .521-.064.632.632 0 0 0 .279-.351l3.806-12.062a1.884 1.884 0 1 0-.826-3.579l-5.027-5.028a.628.628 0 0 0-.888.888l5.025 5.03a1.848 1.848 0 0 0 .528 2.274l-3.626 11.493C4.177 25.414.508 17.466 3.148 10.3S13.736-.535 20.902 2.105c7.166 2.64 10.835 10.589 8.195 17.754a13.83 13.83 0 0 1-7.347 7.851l-.392-1.845a.628.628 0 0 0-1.032-.338L16.548 28.9a.628.628 0 0 0 .228 1.068l4.823 1.539a.628.628 0 0 0 .807-.729l-.385-1.811a15.02 15.02 0 0 0 9.185-13.872zm-15.069-.628a.628.628 0 1 1 0 1.256.628.628 0 0 1 0-1.256zm2.068 14.635 2.151-1.918.594 2.797-2.744-.878z"/><path d="M15.506 3.165v1.256a.628.628 0 1 0 1.256 0V3.165a.628.628 0 1 0-1.256 0zM4.204 14.467a.628.628 0 1 0 0 1.256H5.46a.628.628 0 1 0 0-1.256H4.204zM28.063 15.722a.628.628 0 1 0 0-1.256h-1.256a.628.628 0 1 0 0 1.256h1.256z"/></symbol><symbol id="icon-diagram" viewBox="0 0 32 32"><path d="M14.716 14.763h1.05v4.724h-1.05v-4.724zM18.915 16.863h1.05v2.624h-1.05v-2.624zM10.518 18.437h1.05v1.05h-1.05v-1.05zM7.368 17.912h1.05v1.575h-1.05v-1.575z"/><path d="M1.595 27.884h25.193c.87 0 1.575-.705 1.575-1.575V24.21c0-.869-.705-1.575-1.575-1.575h-.525V9.546l2.981-2.824a1.583 1.583 0 1 0-.735-.752l-2.246 2.129V6.888c0-.87-.705-1.575-1.575-1.575H3.694c-.87 0-1.575.705-1.575 1.575v15.746h-.525c-.87 0-1.575.705-1.575 1.575v2.099c0 .869.705 1.575 1.575 1.575zM29.937 4.791a.525.525 0 1 1 0 1.05.525.525 0 0 1 0-1.05zM3.17 6.89c0-.29.235-.525.525-.525h20.994c.29 0 .525.235.525.525v2.204l-1.05.997V7.939a.525.525 0 0 0-.525-.525H4.744a.525.525 0 0 0-.525.525V21.06c0 .29.235.525.525.525h18.895c.29 0 .525-.235.525-.525v-9.525l1.05-.995v12.095H3.17V6.889zm4.723 6.823a1.576 1.576 0 1 0 1.091 2.707l1.824.915a.526.526 0 0 0 .627-.121l3.878-4.363 3.812 2.857c.204.153.49.137.676-.039l3.313-3.139v8.006H5.269V8.464h17.845v2.619L19.401 14.6l-3.844-2.882a.524.524 0 0 0-.707.071l-3.932 4.424-1.47-.735a1.53 1.53 0 0 0 .02-.19c0-.87-.705-1.575-1.575-1.575zm.525 1.575a.525.525 0 1 1-1.05 0 .525.525 0 0 1 1.05 0zm3.149 8.398h5.249v.525c0 .29-.235.525-.525.525h-4.199a.525.525 0 0 1-.525-.525v-.525zM1.07 24.21c0-.29.235-.525.525-.525h8.923v.525c0 .87.705 1.575 1.575 1.575h4.199c.869 0 1.575-.705 1.575-1.575v-.525h8.922c.29 0 .525.235.525.525v2.099c0 .29-.235.525-.525.525H1.596a.525.525 0 0 1-.525-.525V24.21z"/></symbol><symbol id="icon-fb" viewBox="0 0 32 32"><path d="M21.329 5.313h2.921V.225C23.746.156 22.013 0 19.994 0c-4.212 0-7.097 2.649-7.097 7.519V12H8.249v5.688h4.648V32h5.699V17.689h4.46l.708-5.688h-5.169V8.082c.001-1.644.444-2.769 2.735-2.769z"/></symbol><symbol id="icon-inst" viewBox="0 0 32 32"><path d="M31.969 9.408c-.075-1.7-.35-2.869-.744-3.882a7.793 7.793 0 0 0-1.851-2.838A7.867 7.867 0 0 0 26.542.844C25.523.45 24.361.175 22.66.1 20.947.019 20.403 0 16.059 0s-4.888.019-6.595.094c-1.7.075-2.869.35-3.882.744a7.803 7.803 0 0 0-2.838 1.85A7.867 7.867 0 0 0 .9 5.52C.506 6.539.231 7.702.156 9.402c-.081 1.713-.1 2.257-.1 6.601s.019 4.888.094 6.595c.075 1.7.35 2.869.744 3.882a7.895 7.895 0 0 0 1.85 2.838 7.867 7.867 0 0 0 2.832 1.844c1.019.394 2.182.669 3.882.744 1.706.075 2.25.094 6.595.094s4.888-.019 6.595-.094c1.7-.075 2.869-.35 3.882-.744a8.181 8.181 0 0 0 4.682-4.682c.394-1.019.669-2.182.744-3.882.075-1.707.094-2.25.094-6.595s-.006-4.888-.081-6.595zm-2.882 13.065c-.069 1.563-.331 2.407-.55 2.969a5.31 5.31 0 0 1-3.038 3.038c-.563.219-1.413.481-2.969.55-1.688.075-2.194.094-6.464.094s-4.782-.019-6.464-.094c-1.563-.069-2.407-.331-2.969-.55a4.926 4.926 0 0 1-1.838-1.194 4.974 4.974 0 0 1-1.194-1.838c-.219-.563-.481-1.413-.55-2.969-.075-1.688-.094-2.194-.094-6.464s.019-4.782.094-6.464c.069-1.563.331-2.407.55-2.969a4.868 4.868 0 0 1 1.2-1.838A4.974 4.974 0 0 1 6.639 3.55c.563-.219 1.413-.481 2.969-.55 1.688-.075 2.194-.094 6.464-.094 4.276 0 4.782.019 6.464.094 1.563.069 2.407.331 2.969.55a4.914 4.914 0 0 1 1.838 1.194 4.974 4.974 0 0 1 1.194 1.838c.219.563.481 1.413.55 2.969.075 1.688.094 2.194.094 6.464s-.019 4.77-.094 6.458z"/><path d="M16.059 7.783c-4.538 0-8.22 3.682-8.22 8.22s3.682 8.22 8.22 8.22c4.539 0 8.22-3.682 8.22-8.22s-3.682-8.22-8.22-8.22zm0 13.552a5.333 5.333 0 0 1 0-10.664 5.332 5.332 0 0 1 0 10.664zM26.524 7.458a1.919 1.919 0 1 1-3.838 0 1.919 1.919 0 0 1 3.838 0z"/></symbol><symbol id="icon-li" viewBox="0 0 32 32"><path d="M31.992 32v-.001H32V20.263c0-5.741-1.236-10.164-7.948-10.164-3.227 0-5.392 1.771-6.276 3.449h-.093v-2.913h-6.364v21.364h6.627V21.42c0-2.785.528-5.479 3.977-5.479 3.399 0 3.449 3.179 3.449 5.657v10.401h6.62zM.528 10.636h6.635V32H.528V10.636zM3.843 0C1.722 0 0 1.721 0 3.843s1.721 3.879 3.843 3.879c2.121 0 3.843-1.757 3.843-3.879A3.846 3.846 0 0 0 3.843 0z"/></symbol><symbol id="icon-tw" viewBox="0 0 32 32"><path d="M32 6.078c-1.19.522-2.458.868-3.78 1.036a6.523 6.523 0 0 0 2.886-3.626 13.11 13.11 0 0 1-4.16 1.588A6.574 6.574 0 0 0 22.154 3c-3.632 0-6.556 2.948-6.556 6.562 0 .52.044 1.02.152 1.496-5.454-.266-10.28-2.88-13.522-6.862a6.605 6.605 0 0 0-.898 3.316 6.57 6.57 0 0 0 2.914 5.452 6.479 6.479 0 0 1-2.964-.808v.072c0 3.188 2.274 5.836 5.256 6.446a6.548 6.548 0 0 1-1.72.216 5.8 5.8 0 0 1-1.242-.112c.85 2.598 3.262 4.508 6.13 4.57a13.182 13.182 0 0 1-8.134 2.798c-.538 0-1.054-.024-1.57-.09A18.469 18.469 0 0 0 10.064 29c12.072 0 18.672-10 18.672-18.668 0-.29-.01-.57-.024-.848A13.087 13.087 0 0 0 32 6.078z"/></symbol><symbol id="icon-close" viewBox="0 0 32 32"><path d="M32 3.223l-3.223-3.223-12.777 12.777-12.777-12.777-3.223 3.223 12.777 12.777-12.777 12.777 3.223 3.223 12.777-12.777 12.777 12.777 3.223-3.223-12.777-12.777 12.777-12.777z"></path>
</defs></svg>